<svg xmlns="http://www.w3.org/2000/svg" xmlns:xlink="http://www.w3.org/1999/xlink" width="835.61" height="660.05" viewBox="0 0 835.61 660.05"><defs><linearGradient id="a" x1="0.5" y1="1" x2="0.5" gradientUnits="objectBoundingBox"><stop offset="0" stop-color="gray" stop-opacity="0.251"/><stop offset="0.54" stop-color="gray" stop-opacity="0.122"/><stop offset="1" stop-color="gray" stop-opacity="0.102"/></linearGradient><linearGradient id="d" y2="-0.001" xlink:href="#a"/><linearGradient id="g" x1="29.773" y1="26.262" x2="29.773" y2="25.263" xlink:href="#a"/><linearGradient id="h" y1="0.999" xlink:href="#a"/><linearGradient id="i" x1="35.813" y1="30.815" x2="35.813" y2="29.815" xlink:href="#a"/><linearGradient id="j" x1="39.503" y1="24.82" x2="39.503" y2="23.82" xlink:href="#a"/><linearGradient id="k" x1="30.785" y1="19.69" x2="30.785" y2="18.69" xlink:href="#a"/><linearGradient id="l" x1="25.655" y1="10.971" x2="25.655" y2="9.972" xlink:href="#a"/><linearGradient id="m" x1="25.656" y1="0.713" x2="25.656" y2="-0.287" xlink:href="#a"/><linearGradient id="n" x1="40.017" y1="-13.391" x2="40.017" y2="-14.391" xlink:href="#a"/><linearGradient id="o" x1="50.274" y1="-13.135" x2="50.274" y2="-14.134" xlink:href="#a"/><linearGradient id="p" x1="58.481" y1="-8.006" x2="58.481" y2="-9.006" xlink:href="#a"/><linearGradient id="q" x1="63.609" y1="0.2" x2="63.609" y2="-0.799" xlink:href="#a"/></defs><rect width="800" height="529" transform="translate(35.61)" fill="url(#a)"/><rect width="784" height="450.5" transform="translate(42.61 62.5)" fill="#fff"/><path d="M0,0H784V51.5H0Z" transform="translate(42.61 11)" fill="#00b993"/><rect width="764" height="393" transform="translate(53.61 95)" fill="url(#a)"/><rect width="92" height="73.5" transform="translate(63.11 102)" fill="#00b993" opacity="0.5"/><rect width="92" height="73.5" transform="translate(156.11 102)" fill="#fff"/><rect width="92" height="73.5" transform="translate(249.11 102)" fill="#7ec679" opacity="0.2"/><rect width="92" height="73.5" transform="translate(342.11 102)" fill="#fff"/><rect width="92" height="73.5" transform="translate(435.11 102)" fill="#fff"/><rect width="92" height="73.5" transform="translate(528.11 102)" fill="#00b993" opacity="0.5"/><rect width="92" height="73.5" transform="translate(621.11 102)" fill="#fff"/><rect width="92" height="73.5" transform="translate(714.11 102)" fill="#7ec679" opacity="0.2"/><rect width="92" height="73.5" transform="translate(63.11 177)" fill="#7ec679" opacity="0.2"/><rect width="92" height="73.5" transform="translate(156.11 177)" fill="#7ec679" opacity="0.2"/><rect width="92" height="73.5" transform="translate(249.11 177)" fill="#fff"/><rect width="92" height="73.5" transform="translate(342.11 177)" fill="#00b993" opacity="0.5"/><rect width="92" height="73.5" transform="translate(435.11 177)" fill="#fff"/><rect width="92" height="73.5" transform="translate(528.11 177)" fill="#7ec679" opacity="0.2"/><rect width="92" height="73.5" transform="translate(621.11 177)" fill="#00b993" opacity="0.5"/><rect width="92" height="73.5" transform="translate(714.11 177)" fill="#fff"/><rect width="92" height="73.5" transform="translate(63.11 251)" fill="#fff"/><rect width="92" height="73.5" transform="translate(156.11 251)" fill="#fff"/><rect width="92" height="73.5" transform="translate(249.11 251)" fill="#7ec679" opacity="0.2"/><rect width="92" height="73.5" transform="translate(342.11 251)" fill="#fff"/><rect width="92" height="73.5" transform="translate(435.11 251)" fill="#7ec679" opacity="0.2"/><rect width="92" height="73.5" transform="translate(528.11 251)" fill="#fff"/><rect width="92" height="73.5" transform="translate(621.11 251)" fill="#fff"/><rect width="92" height="73.5" transform="translate(714.11 251)" fill="#7ec679" opacity="0.2"/><rect width="92" height="73.5" transform="translate(63.11 325)" fill="#fff"/><rect width="92" height="73.5" transform="translate(156.11 325)" fill="#6c63ff" opacity="0.5"/><rect width="92" height="73.5" transform="translate(249.11 325)" fill="#00b993" opacity="0.5"/><rect width="92" height="73.5" transform="translate(342.11 325)" fill="#fff"/><rect width="92" height="73.5" transform="translate(435.11 325)" fill="#fff"/><rect width="92" height="73.5" transform="translate(528.11 325)" fill="#00b993" opacity="0.5"/><rect width="92" height="73.5" transform="translate(621.11 325)" fill="#fff"/><rect width="92" height="73.5" transform="translate(714.11 325)" fill="#00b993" opacity="0.5"/><rect width="92" height="73.5" transform="translate(63.11 400)" fill="#6c63ff" opacity="0.5"/><rect width="92" height="73.5" transform="translate(156.11 400)" fill="#6c63ff" opacity="0.2"/><rect width="92" height="73.5" transform="translate(249.11 400)" fill="#fff"/><rect width="92" height="73.5" transform="translate(342.11 400)" fill="#00b993" opacity="0.5"/><rect width="92" height="73.5" transform="translate(435.11 400)" fill="#7ec679" opacity="0.2"/><rect width="92" height="73.5" transform="translate(528.11 400)" fill="#fff"/><rect width="92" height="73.5" transform="translate(621.11 400)" fill="#7ec679" opacity="0.2"/><rect width="92" height="73.5" transform="translate(714.11 400)" fill="#fff"/><rect width="28" height="28" transform="translate(70.61 258)" fill="#69f0ae"/><rect width="28" height="28" transform="translate(348.61 110)" fill="#69f0ae"/><rect width="28" height="28" transform="translate(345.61 258)" fill="#69f0ae"/><rect width="28" height="28" transform="translate(440.61 329)" fill="#69f0ae"/><rect width="28" height="28" transform="translate(625.61 258)" fill="#69f0ae"/><circle cx="171.55" cy="171.55" r="171.55" transform="translate(0 316.95)" fill="url(#a)"/><circle cx="166.92" cy="166.92" r="166.92" transform="translate(4.63 321.58)" fill="#00b993"/><circle cx="135.62" cy="135.62" r="135.62" transform="translate(35.93 352.88)" fill="#fff"/><circle cx="8.11" cy="8.11" r="8.11" transform="translate(163.44 480.39)" fill="url(#d)"/><line x1="44.05" y2="104.32" transform="translate(172.71 384.18)" fill="#6c63ff"/><path d="M174.61,489.5l-5-1.68,45-105.32,5,2.35Z" fill="url(#a)"/><rect width="113.24" height="3.48" transform="matrix(0.389, -0.921, 0.921, 0.389, 171.095, 487.79)" fill="#2196f3"/><line x2="28.98" y2="53.32" transform="translate(172.71 489.66)" fill="#6c63ff"/><path d="M199.61,544.5l-29-54,4-2,30,53Z" fill="url(#a)"/><rect width="3.48" height="60.69" transform="translate(171.167 490.521) rotate(-28.52)" fill="#2196f3"/><circle cx="3.48" cy="3.48" r="3.48" transform="translate(294.42 488.5)" fill="#6c63ff"/><circle cx="4.52" cy="4.52" r="4.52" transform="translate(56.544 427.67) rotate(-60)" fill="url(#g)"/><circle cx="4.52" cy="4.52" r="4.52" transform="translate(57.7 553.026) rotate(-30)" fill="url(#h)"/><circle cx="4.52" cy="4.52" r="4.52" transform="translate(40.69 487.46)" fill="url(#i)"/><circle cx="4.52" cy="4.52" r="4.52" transform="translate(102.67 378) rotate(-30)" fill="url(#j)"/><circle cx="4.52" cy="4.52" r="4.52" transform="translate(165.265 361.778) rotate(-30)" fill="url(#k)"/><circle cx="4.52" cy="4.52" r="4.52" transform="translate(227.858 378.005) rotate(-30)" fill="url(#l)"/><circle cx="4.52" cy="4.52" r="4.52" transform="translate(274.222 424.373) rotate(-30)" fill="url(#m)"/><circle cx="4.52" cy="4.52" r="4.52" transform="translate(273.068 553.036) rotate(-30)" fill="url(#n)"/><circle cx="4.52" cy="4.52" r="4.52" transform="translate(225.539 598.24) rotate(-30)" fill="url(#o)"/><circle cx="4.52" cy="4.52" r="4.52" transform="translate(165.26 612.156) rotate(-30)" fill="url(#p)"/><circle cx="4.52" cy="4.52" r="4.52" transform="translate(104.989 598.245) rotate(-30)" fill="url(#q)"/><circle cx="3.48" cy="3.48" r="3.48" transform="translate(168.07 359.83)" fill="#69f0ae"/><circle cx="3.48" cy="3.48" r="3.48" transform="translate(229.393 381.351) rotate(-60)" fill="#69f0ae"/><circle cx="3.48" cy="3.48" r="3.48" transform="translate(275.211 424.635) rotate(-30)" fill="#69f0ae"/><circle cx="3.48" cy="3.48" r="3.48" transform="translate(274.487 555.952) rotate(-60)" fill="#69f0ae"/><circle cx="3.48" cy="3.48" r="3.48" transform="translate(226.96 598.382) rotate(-30)" fill="#69f0ae"/><circle cx="3.48" cy="3.48" r="3.48" transform="translate(104.201 378.818) rotate(-30)" fill="#69f0ae"/><circle cx="3.48" cy="3.48" r="3.48" transform="translate(58.39 427.181) rotate(-60)" fill="#69f0ae"/><circle cx="4.52" cy="4.52" r="4.52" transform="translate(291.618 490.447) rotate(-30)" fill="#69f0ae"/><circle cx="3.48" cy="3.48" r="3.48" transform="translate(59.12 553.407) rotate(-30)" fill="#69f0ae"/><circle cx="3.48" cy="3.48" r="3.48" transform="translate(106.637 600.93) rotate(-60)" fill="#69f0ae"/><circle cx="3.48" cy="3.48" r="3.48" transform="translate(41.73 488.5)" fill="#69f0ae"/><circle cx="3.48" cy="3.48" r="3.48" transform="translate(168.07 610.2)" fill="#69f0ae"/><path d="M225.08,621.22a135.64,135.64,0,0,1,253.28-67.48A135.64,135.64,0,1,0,236.08,674.8,135.16,135.16,0,0,1,225.08,621.22Z" transform="translate(-182.19 -119.97)" fill="#6c63ff" opacity="0.2"/><circle cx="5.8" cy="5.8" r="5.8" transform="translate(165.75 482.7)" fill="#69f0ae"/></svg>