<svg xmlns="http://www.w3.org/2000/svg" width="44.579" height="44.478" viewBox="0 0 44.579 44.478"><g transform="translate(0 0)"><path d="M43.579,35.574l-6.885-6.885a3.59,3.59,0,0,0-5.061.1l-3.468,3.468c-.219-.121-.446-.247-.684-.381a34.516,34.516,0,0,1-8.343-6.034,34.708,34.708,0,0,1-6.046-8.358c-.128-.232-.252-.456-.373-.669l2.328-2.324,1.144-1.146a3.586,3.586,0,0,0,.092-5.062L9.4,1.393a3.586,3.586,0,0,0-5.061.1L2.4,3.439l.053.053a11.22,11.22,0,0,0-1.6,2.82A11.692,11.692,0,0,0,.14,9.173C-.769,16.709,2.675,23.6,12.021,32.943,24.941,45.861,35.352,44.885,35.8,44.838a11.633,11.633,0,0,0,2.868-.721,11.182,11.182,0,0,0,2.81-1.592l.042.038,1.966-1.925A3.593,3.593,0,0,0,43.579,35.574Z" transform="translate(0 -0.394)" fill="#2e2e2e"/></g></svg>