<svg xmlns="http://www.w3.org/2000/svg" width="66.453" height="66.453" viewBox="0 0 66.453 66.453"><g transform="translate(1.5 1.5)"><path d="M18.863,3H50.59A15.863,15.863,0,0,1,66.453,18.863V50.589A15.863,15.863,0,0,1,50.59,66.453H18.863A15.863,15.863,0,0,1,3,50.589V18.863A15.863,15.863,0,0,1,18.863,3Z" transform="translate(-3 -3)" fill="none" stroke="#e0e0e0" stroke-linecap="round" stroke-linejoin="round" stroke-width="3"/><path d="M37.309,22.764A12.691,12.691,0,1,1,26.617,12.073,12.691,12.691,0,0,1,37.309,22.764Z" transform="translate(7.108 6.963)" fill="none" stroke="#e0e0e0" stroke-linecap="round" stroke-linejoin="round" stroke-width="3"/><path d="M26.25,9.75h0" transform="translate(22.926 4.527)" fill="none" stroke="#e0e0e0" stroke-linecap="round" stroke-linejoin="round" stroke-width="3"/></g></svg>