<svg xmlns="http://www.w3.org/2000/svg" width="44.58" height="44.48" viewBox="0 0 44.58 44.48"><path d="M37.9,8.714a22.076,22.076,0,0,0-34.768,26.6L0,46.73l11.712-3.068A22.063,22.063,0,0,0,22.27,46.343h.01A22.279,22.279,0,0,0,44.58,24.3,22.1,22.1,0,0,0,37.9,8.713ZM22.28,42.629a18.36,18.36,0,0,1-9.354-2.552l-.667-.4L5.314,41.5l1.851-6.761-.438-.695a18.351,18.351,0,0,1,28.539-22.7A18.372,18.372,0,0,1,40.848,24.3,18.546,18.546,0,0,1,22.28,42.629ZM32.35,28.908c-.547-.278-3.264-1.608-3.771-1.787s-.876-.278-1.244.278-1.423,1.787-1.751,2.164-.647.417-1.194.139c-3.244-1.618-5.373-2.889-7.513-6.553-.567-.973.567-.9,1.622-3.008a1.019,1.019,0,0,0-.05-.963c-.139-.278-1.244-2.989-1.7-4.091-.448-1.072-.906-.923-1.244-.943-.318-.02-.687-.02-1.055-.02a2.047,2.047,0,0,0-1.473.685,6.183,6.183,0,0,0-1.93,4.6c0,2.71,1.98,5.332,2.249,5.7s3.891,5.927,9.433,8.32c3.5,1.509,4.876,1.638,6.627,1.38,1.065-.159,3.264-1.33,3.722-2.621a4.6,4.6,0,0,0,.318-2.621C33.266,29.315,32.9,29.176,32.35,28.908Z" transform="translate(0 -2.25)" fill="#e0e0e0"/></svg>